<svg width="268" height="253" viewBox="0 0 268 253" fill="none" xmlns="http://www.w3.org/2000/svg">
<path d="M74.2699 0C74.2699 0 74.2199 0 74.1999 0C74.1699 0 74.1399 0 74.0999 0C0.849907 0.12 -0.350093 76.39 0.0399075 130.1C0.189907 150.6 -0.750093 171.31 3.28991 191.4C9.69991 223.28 38.0699 252.74 74.0999 252.98V253C74.2699 253 74.4399 253 74.6099 253C74.7199 253 74.8399 253 74.9499 253C141.93 252.53 196.09 198.09 196.09 131V122C196.1 54.68 141.57 0.09 74.2699 0ZM148.65 67C154.45 67 159.15 71.7 159.15 77.5C159.15 83.3 154.45 88 148.65 88C142.85 88 138.15 83.3 138.15 77.5C138.15 71.7 142.85 67 148.65 67ZM118.55 67C124.35 67 129.05 71.7 129.05 77.5C129.05 83.3 124.35 88 118.55 88C112.75 88 108.05 83.3 108.05 77.5C108.05 71.7 112.75 67 118.55 67ZM164.12 114.62C144.3 124.04 121.05 126.21 100.68 117.23C93.6199 114.12 99.7399 103.78 106.74 106.87C112.59 109.45 118.92 110.77 125.35 111.07L136.83 110.55C144.26 109.56 151.53 107.37 158.06 104.27C165.01 100.97 171.09 111.32 164.12 114.63V114.62Z" fill="#007AFF"/>
<path d="M267.16 116.46C270.44 106.5 263.07 94.55 250.4 92.18C237.76 89.81 224.39 95.3 220.88 105.97C219.76 109.35 218.66 112.75 217.58 116.15C218.3 115.45 219.28 115.02 220.36 115.02C222.57 115.02 224.36 116.81 224.36 119.02C224.36 121.23 222.57 123.02 220.36 123.02C218.42 123.02 216.8 121.64 216.44 119.8C211.43 135.97 207.2 152.43 205.93 169.33C205.12 180.13 205.58 191.04 207.9 201.64C210.83 215.04 216.22 229.32 231.43 232.08C238.4 233.35 245.8 231.62 251.69 227.69C255.2 225.34 258.3 222.08 259.49 218.02C260.34 215.12 260.16 212.02 259.62 209.05C258.65 203.65 256.56 198.55 255.15 193.26C253.72 187.91 253.83 182.82 253.68 177.36C253.47 169.33 254.42 161.48 256.04 153.75C258.69 141.1 263.13 128.76 267.19 116.47L267.16 116.46ZM231.2 136.82C230.39 140.09 226.39 141.91 220.9 140.56C213.83 138.82 212.49 136.22 213.52 132.46C213.66 131.95 213.87 131.47 214.17 131.04L231.29 135.26C231.36 135.78 231.33 136.31 231.21 136.82H231.2ZM231.74 126.02C229.53 126.02 227.74 124.23 227.74 122.02C227.74 119.81 229.53 118.02 231.74 118.02C233.95 118.02 235.74 119.81 235.74 122.02C235.74 124.23 233.95 126.02 231.74 126.02ZM254.07 205.79C254.07 205.79 254.15 206.7 254.24 207.4C254.07 206.49 253.98 205.82 254.07 205.79Z" fill="#007AFF"/>
<path d="M216.35 119.02C216.35 119.29 216.38 119.55 216.43 119.8C216.81 118.58 217.19 117.36 217.58 116.15C216.83 116.88 216.36 117.89 216.36 119.02H216.35Z" fill="#007AFF"/>
</svg>
