<svg width="498" height="194" viewBox="0 0 498 194" fill="none" xmlns="http://www.w3.org/2000/svg">
<path d="M25.895 190.392C19.9519 190.392 15.2823 189.755 11.8862 188.481C8.49015 187.208 5.90773 185.404 4.13895 183.069C2.37017 180.734 1.23815 177.904 0.742888 174.579C0.247629 171.253 0 167.61 0 163.648V26.5317C0 21.7206 0.424508 17.6171 1.27352 14.221C2.12254 10.825 3.53756 8.06567 5.5186 5.94313C7.49963 3.8206 10.1174 2.29941 13.372 1.37965C16.6265 0.459881 20.7301 0 25.6827 0H62.6149C78.8876 0 92.2242 1.80415 102.625 5.41247C113.025 9.02078 121.162 14.6101 127.034 22.1805C132.906 29.7509 136.939 39.3024 139.132 50.8348C141.326 62.3673 142.422 75.9868 142.422 91.6936C142.422 107.4 141.432 122.046 139.451 134.357C137.47 146.667 133.578 156.962 127.777 165.24C121.975 173.517 113.874 179.779 103.474 184.024C93.0733 188.269 79.4537 190.392 62.6149 190.392H25.895ZM102.094 91.6936C102.094 82.0714 101.705 73.7582 100.927 66.7538C100.148 59.7495 98.3796 53.9832 95.6203 49.4552C92.861 44.9271 88.7928 41.5664 83.4157 39.3731C78.0386 37.1798 70.7512 36.0831 61.5536 36.0831H38.6302V154.309H61.5536C70.7512 154.309 78.0386 152.893 83.4157 150.063C88.7928 147.233 92.861 143.094 95.6203 137.647C98.3796 132.199 100.148 125.619 100.927 117.907C101.705 110.195 102.094 101.457 102.094 91.6936Z" fill="#007AFF"/>
<path d="M228.173 160.039C232.277 160.039 236.522 159.969 240.908 159.827C245.295 159.686 249.54 159.509 253.643 159.297C257.747 159.084 261.532 158.837 264.999 158.554C268.466 158.271 271.402 158.058 273.808 157.917C275.506 157.775 276.815 157.952 277.734 158.448C278.654 158.943 279.185 160.818 279.326 164.072L279.538 180.416C279.538 183.246 279.079 185.015 278.159 185.722C277.239 186.43 275.859 186.996 274.02 187.42C271.473 187.986 268.254 188.658 264.362 189.437C260.471 190.215 256.226 190.922 251.627 191.559C247.028 192.196 242.217 192.762 237.194 193.257C232.17 193.752 227.253 194 222.442 194C211.971 194 203.021 192.656 195.592 189.967C188.163 187.279 182.008 183.069 177.126 177.338C172.244 171.607 168.671 164.32 166.407 155.476C164.143 146.632 163.011 135.984 163.011 123.532C163.011 98.9103 168.141 80.4443 178.4 68.1336C188.658 55.8229 203.905 49.6675 224.14 49.6675C244.375 49.6675 259.622 54.7616 269.456 64.9498C279.291 75.1379 284.208 90.7032 284.208 111.646V129.05C284.208 132.305 283.642 134.534 282.51 135.736C281.378 136.939 279.255 137.541 276.142 137.541H200.368C200.509 145.606 202.703 151.372 206.948 154.839C211.193 158.306 218.268 160.039 228.173 160.039ZM247.913 109.311C247.913 99.4056 246.144 92.4366 242.606 88.4038C239.069 84.371 232.913 82.3546 224.14 82.3546C215.367 82.3546 209.035 84.5478 205.568 88.9344C202.101 93.321 200.297 100.113 200.156 109.311H247.913Z" fill="#007AFF"/>
<path d="M317.319 190.392C315.338 190.392 313.923 190.038 313.074 189.33C312.225 188.623 311.8 187.208 311.8 185.085V5.30634C311.8 3.18381 312.225 1.76879 313.074 1.06128C313.923 0.353767 315.338 0 317.319 0H344.275C346.256 0 347.671 0.353767 348.52 1.06128C349.369 1.76879 349.794 3.18381 349.794 5.30634V185.085C349.794 187.208 349.369 188.623 348.52 189.33C347.671 190.038 346.256 190.392 344.275 190.392H317.319Z" fill="#007AFF"/>
<path d="M391.184 190.392C389.203 190.392 387.788 190.038 386.939 189.33C386.09 188.623 385.665 187.208 385.665 185.085V5.30634C385.665 3.18381 386.09 1.76879 386.939 1.06128C387.788 0.353767 389.203 0 391.184 0H418.14C420.121 0 421.536 0.353767 422.385 1.06128C423.234 1.76879 423.659 3.18381 423.659 5.30634V185.085C423.659 187.208 423.234 188.623 422.385 189.33C421.536 190.038 420.121 190.392 418.14 190.392H391.184Z" fill="#007AFF"/>
<path d="M465.048 37.7812C463.067 37.7812 461.652 37.4274 460.802 36.7199C459.953 36.0124 459.529 34.5974 459.529 32.4748V5.30634C459.529 3.18381 459.953 1.76879 460.802 1.06128C461.652 0.353767 463.067 0 465.048 0H492.004C493.985 0 495.4 0.353767 496.249 1.06128C497.098 1.76879 497.522 3.18381 497.522 5.30634V32.4748C497.522 34.5974 497.098 36.0124 496.249 36.7199C495.4 37.4274 493.985 37.7812 492.004 37.7812H465.048ZM465.048 190.604C463.067 190.604 461.652 190.25 460.802 189.543C459.953 188.835 459.529 187.42 459.529 185.298V60.9168C459.529 58.7943 459.953 57.3793 460.802 56.6718C461.652 55.9642 463.067 55.6105 465.048 55.6105H492.004C493.985 55.6105 495.4 55.9642 496.249 56.6718C497.098 57.3793 497.522 58.7943 497.522 60.9168V185.298C497.522 187.42 497.098 188.835 496.249 189.543C495.4 190.25 493.985 190.604 492.004 190.604H465.048Z" fill="#007AFF"/>
</svg>
