<svg width="17" height="20" viewBox="0 0 17 20" fill="none" xmlns="http://www.w3.org/2000/svg">
<path fill-rule="evenodd" clip-rule="evenodd" d="M15.9144 13.9563C16.2174 14.2344 16.4831 14.5262 16.5503 14.9508L16.5511 14.952C16.6871 15.8102 16.1308 16.5516 15.2722 16.6562C15.1825 16.6668 15.0916 16.6699 15.0011 16.6699H1.58094C0.871982 16.6695 0.34871 16.3438 0.111743 15.7578C-0.126779 15.168 0.0196747 14.5391 0.521192 14.0945C1.18276 13.5086 1.70215 12.8219 2.04672 12.0047C2.32525 11.3445 2.47676 10.6551 2.48492 9.93828C2.4914 9.37631 2.49032 8.81434 2.48923 8.25237C2.48882 8.03973 2.48841 7.82709 2.48841 7.61445C2.48958 4.63438 4.45835 2.27305 7.37927 1.74844C7.39066 1.74629 7.40161 1.74196 7.41876 1.73518C7.4297 1.73085 7.44315 1.72553 7.46085 1.71914C7.46085 1.65055 7.46203 1.58103 7.46322 1.51093C7.46589 1.35347 7.46862 1.19306 7.45813 1.03359C7.42395 0.519141 7.62867 0.16875 8.12087 0H8.47049C8.96773 0.180859 9.15731 0.548437 9.1239 1.06406C9.12111 1.10658 9.11664 1.15134 9.11209 1.1969C9.09388 1.37947 9.07438 1.57488 9.15614 1.69023C9.21762 1.7771 9.3693 1.79817 9.52215 1.8194C9.59338 1.82929 9.66486 1.83922 9.72758 1.85586C12.0771 2.47773 13.765 4.41641 14.0486 6.85117C14.0891 7.19772 14.0892 7.54925 14.0894 7.90066C14.0895 8.05151 14.0896 8.20233 14.0928 8.35273C14.0978 8.58218 14.0976 8.81213 14.0975 9.04208C14.0971 9.53558 14.0968 10.029 14.1468 10.5172C14.2875 11.8844 14.9051 13.0305 15.9144 13.9563ZM7.59215 19.8869C7.31888 19.8085 7.04573 19.7301 6.79925 19.6004V19.6008C5.96326 19.1613 5.46252 18.4414 5.2442 17.5066H11.3215C11.2636 17.8828 11.1187 18.2176 10.9202 18.5273C10.4008 19.3379 9.66695 19.823 8.71481 19.9676C8.69401 19.9708 8.6741 19.9793 8.65412 19.9879C8.64462 19.992 8.6351 19.9961 8.62546 19.9996H7.96506C7.84243 19.9587 7.71728 19.9228 7.59215 19.8869Z" fill="#BAC0C8"/>
</svg>
