<svg width="24" height="20" viewBox="0 0 24 20" fill="none" xmlns="http://www.w3.org/2000/svg">
<path d="M13.7799 12.177C12.6117 12.9536 11.3857 12.952 10.2201 12.177C7.50871 10.3724 4.79784 8.56722 2.08646 6.76258C2.06042 6.7454 2.02865 6.73706 2 6.72456V15.8868C2.09635 16.2899 2.24999 16.6623 2.55988 16.9555C2.94893 17.3238 3.41507 17.4795 3.94578 17.479C6.56238 17.4769 9.17898 17.4779 11.7956 17.4779C14.4122 17.4779 17.2501 17.4779 19.9771 17.4779C21.0693 17.4779 21.7141 16.9748 21.9781 15.9181C21.9812 15.9066 21.9927 15.8972 22 15.8868V6.72456C21.9281 6.76675 21.8536 6.80529 21.7844 6.85164C19.1162 8.6266 16.4491 10.4031 13.7804 12.1775L13.7799 12.177Z" fill="black"/>
<path d="M21.9021 3.77985C21.6568 3.04914 21.0058 2.56634 20.211 2.52415C20.1527 2.52103 20.0938 2.52155 20.0355 2.52155C14.6783 2.52103 9.32168 2.52103 3.96505 2.52103C3.05883 2.52103 2.36353 2.99029 2.09739 3.77881C2.06042 3.88818 2.03229 4.0012 2 4.11213V4.61889C2.01094 4.6418 2.0276 4.66368 2.03229 4.68764C2.13073 5.19439 2.40989 5.57459 2.83644 5.85792C5.52699 7.64641 8.21598 9.43699 10.906 11.2265C11.6268 11.7062 12.3565 11.7156 13.0778 11.2369C15.7752 9.44689 18.4678 7.65006 21.1651 5.86C21.6198 5.55845 21.8745 5.13502 21.9995 4.61889V4.11213C21.9672 4.0012 21.9391 3.88922 21.9021 3.77933V3.77985Z" fill="black"/>
</svg>
