<svg width="18" height="18" viewBox="0 0 18 18" fill="none" xmlns="http://www.w3.org/2000/svg">
<path d="M17.6894 16.1921L13.6246 12.1273C14.5819 10.8586 15.1563 9.28629 15.1563 7.57814C15.1563 3.39952 11.7559 -1.52588e-05 7.57816 -1.52588e-05C3.39954 0.000867051 0 3.40041 0 7.57902C0 11.7568 3.39954 15.1572 7.57816 15.1572C9.28543 15.1572 10.8586 14.5828 12.1273 13.6255L16.1921 17.6903C16.3986 17.8968 16.6695 18 16.9403 18C17.2112 18 17.4821 17.8968 17.6894 17.6894C18.1023 17.2765 18.1023 16.6059 17.6894 16.1921ZM2.11754 7.57902C2.11754 4.5677 4.56683 2.11841 7.57816 2.11841C10.5886 2.11841 13.0379 4.5677 13.0379 7.57814C13.0379 10.5886 10.5886 13.0379 7.57816 13.0379C4.56683 13.0388 2.11754 10.5895 2.11754 7.57902Z" fill="#BAC0C8"/>
</svg>
